<?xml version="1.0" encoding="UTF-8" standalone="no"?>
<!DOCTYPE svg PUBLIC "-//W3C//DTD SVG 1.1//EN" "http://www.w3.org/Graphics/SVG/1.1/DTD/svg11.dtd">
<svg width="100%" height="100%" viewBox="0 0 655 655" version="1.1" xmlns="http://www.w3.org/2000/svg" xmlns:xlink="http://www.w3.org/1999/xlink" xml:space="preserve" xmlns:serif="http://www.serif.com/" style="fill-rule:evenodd;clip-rule:evenodd;stroke-linejoin:round;stroke-miterlimit:2;">
    <g transform="matrix(1,0,0,1,-126.046,-0.779152)">
        <g transform="matrix(4.16667,0,0,4.16667,0,0)">
            <path d="M108.738,144.826C72.203,144.826 42.586,115.208 42.586,78.674C42.586,42.139 72.203,12.522 108.738,12.522C145.273,12.522 174.89,42.139 174.89,78.674C174.89,115.208 145.273,144.826 108.738,144.826ZM108.738,0.187C65.391,0.187 30.251,35.327 30.251,78.674C30.251,122.021 65.391,157.16 108.738,157.16C152.085,157.16 187.225,122.021 187.225,78.674C187.225,35.327 152.085,0.187 108.738,0.187Z" style="fill:rgb(255,203,65);fill-rule:nonzero;"/>
        </g>
        <g transform="matrix(4.16667,0,0,4.16667,0,0)">
            <path d="M170.828,73.338C165.348,73.338 160.224,71.818 155.852,69.179C154.096,76.424 147.572,81.806 139.787,81.806C134.11,81.806 129.103,78.943 126.126,74.584C122.037,75.869 117.687,76.564 113.174,76.564C104.861,76.564 97.098,74.21 90.512,70.137C85.243,82 73.36,90.274 59.543,90.274C54.711,90.274 50.117,89.26 45.958,87.436C50.226,118.295 76.704,142.059 108.738,142.059C143.745,142.059 172.124,113.681 172.124,78.674C172.124,76.869 172.044,75.083 171.896,73.316C171.542,73.329 171.186,73.338 170.828,73.338Z" style="fill:rgb(37,175,229);fill-rule:nonzero;"/>
        </g>
        <g transform="matrix(4.16667,0,0,4.16667,0,0)">
            <path d="M164.295,86.802C161.107,116.052 136.768,138.947 106.893,139.869C107.512,139.888 108.132,139.901 108.756,139.901C139.482,139.901 164.777,116.662 168.031,86.802L164.295,86.802Z" style="fill:rgb(251,243,125);fill-rule:nonzero;"/>
        </g>
        <g transform="matrix(4.16667,0,0,4.16667,0,0)">
            <path d="M69.028,74.194C69.028,78.866 65.24,82.654 60.569,82.654C55.897,82.654 52.109,78.866 52.109,74.194C52.109,69.522 55.897,65.735 60.569,65.735C65.24,65.735 69.028,69.522 69.028,74.194Z" style="fill:rgb(37,175,229);fill-rule:nonzero;"/>
        </g>
        <g transform="matrix(4.16667,0,0,4.16667,0,0)">
            <path d="M60.569,66.812C60.387,66.812 60.208,66.82 60.03,66.833C63.856,67.109 66.875,70.298 66.875,74.194C66.875,78.09 63.856,81.279 60.03,81.555C60.208,81.568 60.387,81.577 60.569,81.577C64.646,81.577 67.951,78.272 67.951,74.194C67.951,70.117 64.646,66.812 60.569,66.812Z" style="fill:rgb(251,243,125);fill-rule:nonzero;"/>
        </g>
        <g transform="matrix(4.16667,0,0,4.16667,0,0)">
            <path d="M80.616,64.761C80.616,67.201 78.638,69.179 76.198,69.179C73.757,69.179 71.779,67.201 71.779,64.761C71.779,62.321 73.757,60.343 76.198,60.343C78.638,60.343 80.616,62.321 80.616,64.761Z" style="fill:rgb(37,175,229);fill-rule:nonzero;"/>
        </g>
        <g transform="matrix(4.16667,0,0,4.16667,0,0)">
            <path d="M76.198,60.905C76.103,60.905 76.009,60.91 75.916,60.916C77.915,61.061 79.491,62.726 79.491,64.761C79.491,66.796 77.915,68.461 75.916,68.606C76.009,68.612 76.103,68.617 76.198,68.617C78.327,68.617 80.054,66.891 80.054,64.761C80.054,62.631 78.327,60.905 76.198,60.905Z" style="fill:rgb(251,243,125);fill-rule:nonzero;"/>
        </g>
        <g transform="matrix(4.16667,0,0,4.16667,0,0)">
            <path d="M71.055,52.141C71.055,55.312 68.485,57.882 65.314,57.882C62.143,57.882 59.573,55.312 59.573,52.141C59.573,48.97 62.143,46.399 65.314,46.399C68.485,46.399 71.055,48.97 71.055,52.141Z" style="fill:rgb(37,175,229);fill-rule:nonzero;"/>
        </g>
        <g transform="matrix(4.16667,0,0,4.16667,0,0)">
            <path d="M65.314,47.13C65.191,47.13 65.069,47.136 64.948,47.145C67.545,47.332 69.594,49.496 69.594,52.141C69.594,54.785 67.545,56.949 64.948,57.137C65.069,57.145 65.191,57.151 65.314,57.151C68.081,57.151 70.324,54.908 70.324,52.141C70.324,49.373 68.081,47.13 65.314,47.13Z" style="fill:rgb(251,243,125);fill-rule:nonzero;"/>
        </g>
        <g transform="matrix(4.16667,0,0,4.16667,0,0)">
            <path d="M145.752,70.502C145.752,73.673 143.181,76.244 140.011,76.244C136.84,76.244 134.269,73.673 134.269,70.502C134.269,67.331 136.84,64.761 140.011,64.761C143.181,64.761 145.752,67.331 145.752,70.502Z" style="fill:rgb(37,175,229);fill-rule:nonzero;"/>
        </g>
        <g transform="matrix(4.16667,0,0,4.16667,0,0)">
            <path d="M140.011,65.492C139.888,65.492 139.766,65.498 139.645,65.506C142.242,65.694 144.29,67.858 144.29,70.502C144.29,73.147 142.242,75.311 139.645,75.498C139.766,75.507 139.888,75.513 140.011,75.513C142.778,75.513 145.021,73.27 145.021,70.502C145.021,67.735 142.778,65.492 140.011,65.492Z" style="fill:rgb(251,243,125);fill-rule:nonzero;"/>
        </g>
        <g transform="matrix(4.16667,0,0,4.16667,0,0)">
            <path d="M80.054,114.852C79.931,114.852 79.809,114.847 79.688,114.838C82.285,114.65 84.333,112.486 84.333,109.842C84.333,107.198 82.285,105.033 79.688,104.846C79.809,104.837 79.931,104.831 80.054,104.831C82.821,104.831 85.064,107.075 85.064,109.842C85.064,112.609 82.821,114.852 80.054,114.852ZM80.054,104.101C76.883,104.101 74.312,106.671 74.312,109.842C74.312,113.013 76.883,115.583 80.054,115.583C83.224,115.583 85.795,113.013 85.795,109.842C85.795,106.671 83.224,104.101 80.054,104.101Z" style="fill:rgb(251,243,125);fill-rule:nonzero;"/>
        </g>
        <g transform="matrix(4.16667,0,0,4.16667,0,0)">
            <path d="M123.984,114.425C123.789,114.425 123.596,114.415 123.404,114.401C127.521,114.104 130.769,110.673 130.769,106.481C130.769,102.288 127.521,98.857 123.404,98.56C123.596,98.546 123.789,98.537 123.984,98.537C128.371,98.537 131.928,102.093 131.928,106.481C131.928,110.868 128.371,114.425 123.984,114.425ZM123.984,97.378C118.956,97.378 114.881,101.453 114.881,106.481C114.881,111.508 118.956,115.583 123.984,115.583C129.011,115.583 133.086,111.508 133.086,106.481C133.086,101.453 129.011,97.378 123.984,97.378Z" style="fill:rgb(251,243,125);fill-rule:nonzero;"/>
        </g>
    </g>
</svg>
